<?xml version="1.0" encoding="UTF-8"?>
<svg width="240" height="120" viewBox="0 0 240 120" xmlns="http://www.w3.org/2000/svg">
  <!-- Database Icons and Connections -->
  <g transform="translate(70, 28)" stroke="#1e54b7" stroke-width="2.5" fill="none" stroke-linecap="round" stroke-linejoin="round">
    <!-- First Database (Left) -->
    <ellipse cx="25" cy="15" rx="15" ry="6">
      <animate attributeName="ry" values="6;5;6" dur="3s" repeatCount="indefinite" />
    </ellipse>
    <ellipse cx="25" cy="30" rx="15" ry="6">
      <animate attributeName="ry" values="6;5;6" dur="3s" begin="0.3s" repeatCount="indefinite" />
    </ellipse>
    <ellipse cx="25" cy="45" rx="15" ry="6">
      <animate attributeName="ry" values="6;5;6" dur="3s" begin="0.6s" repeatCount="indefinite" />
    </ellipse>
    <line x1="10" y1="15" x2="10" y2="45" />
    <line x1="40" y1="15" x2="40" y2="45" />
    
    <!-- Second Database (Right) -->
    <ellipse cx="85" cy="15" rx="15" ry="6">
      <animate attributeName="ry" values="6;5;6" dur="3s" begin="0.2s" repeatCount="indefinite" />
    </ellipse>
    <ellipse cx="85" cy="30" rx="15" ry="6">
      <animate attributeName="ry" values="6;5;6" dur="3s" begin="0.5s" repeatCount="indefinite" />
    </ellipse>
    <ellipse cx="85" cy="45" rx="15" ry="6">
      <animate attributeName="ry" values="6;5;6" dur="3s" begin="0.8s" repeatCount="indefinite" />
    </ellipse>
    <line x1="70" y1="15" x2="70" y2="45" />
    <line x1="100" y1="15" x2="100" y2="45" />
    
    <!-- Connection Line -->
    <line x1="25" y1="60" x2="25" y2="65" />
    <line x1="25" y1="65" x2="55" y2="65" />
    <line x1="55" y1="65" x2="55" y2="70" />
    <line x1="55" y1="70" x2="85" y2="70" />
    <line x1="85" y1="70" x2="85" y2="60" />
    
    <!-- Connection Nodes with Pulse Animation -->
    <circle cx="25" cy="65" r="4" fill="#1e54b7">
      <animate attributeName="r" values="4;5;4" dur="2s" repeatCount="indefinite" />
      <animate attributeName="opacity" values="1;0.8;1" dur="2s" repeatCount="indefinite" />
    </circle>
    <rect x="51" y="65" width="8" height="8" fill="#1e54b7">
      <animate attributeName="width" values="8;9;8" dur="2s" begin="0.3s" repeatCount="indefinite" />
      <animate attributeName="height" values="8;9;8" dur="2s" begin="0.3s" repeatCount="indefinite" />
      <animate attributeName="opacity" values="1;0.8;1" dur="2s" begin="0.3s" repeatCount="indefinite" />
    </rect>
    <circle cx="85" cy="70" r="4" fill="#1e54b7">
      <animate attributeName="r" values="4;5;4" dur="2s" begin="0.6s" repeatCount="indefinite" />
      <animate attributeName="opacity" values="1;0.8;1" dur="2s" begin="0.6s" repeatCount="indefinite" />
    </circle>
  </g>
  
  <!-- Data Flow Animation -->
  <circle cx="120" cy="60" r="35" fill="none" stroke="#1e54b7" stroke-width="0.5" opacity="0.1">
    <animate attributeName="r" values="35;45;35" dur="4s" repeatCount="indefinite" />
    <animate attributeName="opacity" values="0.1;0;0.1" dur="4s" repeatCount="indefinite" />
  </circle>
</svg> 